<svg width="41" height="40" viewBox="0 0 41 40" fill="none" xmlns="http://www.w3.org/2000/svg">
<circle cx="20.6597" cy="20" r="20" fill="white"/>
<mask id="mask0_1355_33457" style="mask-type:alpha" maskUnits="userSpaceOnUse" x="5" y="5" width="31" height="30">
<rect x="5.65967" y="5" width="30" height="30" fill="#C4C4C4"/>
</mask>
<g mask="url(#mask0_1355_33457)">
<path d="M21.1539 10.2654C19.5836 10.5104 18.3481 11.4302 17.6945 12.84C17.2242 13.863 17.1285 14.4862 17.1285 16.6053V18.1053H15.7774C15.0282 18.1053 14.3785 18.1225 14.3267 18.144C14.2709 18.1698 14.1872 18.23 14.1434 18.2816C14.0597 18.3761 14.0597 18.4062 14.0597 20.3576C14.0597 22.1714 14.0677 22.3477 14.1314 22.4293C14.2669 22.6142 14.3188 22.6185 15.7495 22.6185H17.1285V27.2605V31.9026L17.2441 32.0401L17.3597 32.182L19.2169 32.1949C20.855 32.2035 21.0901 32.1992 21.1977 32.139C21.4448 32.0015 21.4329 32.2164 21.4329 27.1961V22.6185H23.0271C24.1749 22.6185 24.6452 22.6056 24.7209 22.5669C24.9401 22.4594 24.9401 22.4422 24.9401 20.3447V18.4062L24.8245 18.2687L24.709 18.1268L23.0669 18.1139L21.4289 18.101L21.4409 16.7127L21.4528 15.3287L21.5724 15.0751C21.7039 14.8 21.9231 14.6152 22.218 14.5292C22.3017 14.5034 22.8916 14.4776 23.5253 14.469C24.163 14.4562 24.7249 14.439 24.7727 14.4261C24.8245 14.4132 24.9122 14.353 24.964 14.2928L25.0597 14.1811V12.3242C25.0597 10.5018 25.0597 10.4674 24.976 10.3729C24.9322 10.3213 24.8485 10.2611 24.7927 10.2353C24.6332 10.1708 21.6003 10.1966 21.1539 10.2654Z" fill="#00730C"/>
</g>
</svg>
