<svg width="41" height="40" viewBox="0 0 41 40" fill="none" xmlns="http://www.w3.org/2000/svg">
<circle cx="20.6597" cy="20" r="19.5" stroke="white"/>
<mask id="mask0_1355_33469" style="mask-type:alpha" maskUnits="userSpaceOnUse" x="5" y="6" width="31" height="31">
<rect x="5.85962" y="6.2002" width="30" height="30" fill="#C4C4C4"/>
</mask>
<g mask="url(#mask0_1355_33469)">
<path d="M32.2925 20.7403V17.5078H30.6089V20.7403H27.2417V22.3566H30.6089V25.5891H32.2925V22.3566H35.6597V20.7403H32.2925Z" fill="white"/>
<path d="M15.7882 20.5424V24.3424H21.1633C20.3786 26.554 18.2658 28.1424 15.7882 28.1424C12.6456 28.1424 10.0882 25.585 10.0882 22.4424C10.0882 19.2998 12.6456 16.7424 15.7882 16.7424C17.1505 16.7424 18.4615 17.2307 19.4799 18.118L21.9765 15.2528C20.2665 13.7632 18.0701 12.9424 15.7882 12.9424C10.5499 12.9424 6.28821 17.2041 6.28821 22.4424C6.28821 27.6807 10.5499 31.9424 15.7882 31.9424C21.0265 31.9424 25.2882 27.6807 25.2882 22.4424V20.5424H15.7882Z" fill="white"/>
</g>
</svg>
