<svg width="41" height="40" viewBox="0 0 41 40" fill="none" xmlns="http://www.w3.org/2000/svg">
<circle cx="20.6597" cy="20" r="19.5" stroke="white"/>
<mask id="mask0_1355_33482" style="mask-type:alpha" maskUnits="userSpaceOnUse" x="8" y="9" width="25" height="25">
<rect x="8.42444" y="9.76465" width="24" height="24" fill="#C4C4C4"/>
</mask>
<g mask="url(#mask0_1355_33482)">
<path d="M32.4244 14.3231C31.5319 14.7146 30.5809 14.9741 29.5894 15.1001C30.6094 14.4911 31.3879 13.5341 31.7539 12.3806C30.8029 12.9476 29.7529 13.3481 28.6339 13.5716C27.7309 12.6101 26.4439 12.0146 25.0399 12.0146C22.3159 12.0146 20.1229 14.2256 20.1229 16.9361C20.1229 17.3261 20.1559 17.7011 20.2369 18.0581C16.1464 17.8586 12.5269 15.8981 10.0954 12.9116C9.67094 13.6481 9.42194 14.4911 9.42194 15.3986C9.42194 17.1026 10.2994 18.6131 11.6074 19.4876C10.8169 19.4726 10.0414 19.2431 9.38444 18.8816C9.38444 18.8966 9.38444 18.9161 9.38444 18.9356C9.38444 21.3266 11.0899 23.3126 13.3264 23.7701C12.9259 23.8796 12.4894 23.9321 12.0364 23.9321C11.7214 23.9321 11.4034 23.9141 11.1049 23.8481C11.7424 25.7966 13.5514 27.2291 15.7024 27.2756C14.0284 28.5851 11.9029 29.3741 9.60194 29.3741C9.19844 29.3741 8.81144 29.3561 8.42444 29.3066C10.6039 30.7121 13.1869 31.5146 15.9724 31.5146C25.0264 31.5146 29.9764 24.0146 29.9764 17.5136C29.9764 17.2961 29.9689 17.0861 29.9584 16.8776C30.9349 16.1846 31.7554 15.3191 32.4244 14.3231Z" fill="white"/>
</g>
</svg>
